<mxfile host="app.diagrams.net" agent="Mozilla/5.0 (Windows NT 10.0; Win64; x64) AppleWebKit/537.36 (KHTML, like Gecko) Chrome/133.0.0.0 Safari/537.36" version="26.0.16" pages="4">
  <diagram name="Render" id="Voaa0hVpeMHUIiZXv8sp">
    <mxGraphModel dx="1434" dy="756" grid="1" gridSize="10" guides="1" tooltips="1" connect="1" arrows="1" fold="1" page="1" pageScale="1" pageWidth="3300" pageHeight="4681" math="0" shadow="0">
      <root>
        <mxCell id="0" />
        <mxCell id="1" parent="0" />
        <mxCell id="gjyP67Qj3iF5TzowIGo3-1" value="&lt;div style=&quot;background-color:#151515;color:#a9b7c6&quot;&gt;&lt;pre style=&quot;font-family:&#39;Consolas&#39;,monospace;font-size:11.3pt;&quot;&gt;CollectShadowLights&lt;/pre&gt;&lt;/div&gt;" style="text;whiteSpace=wrap;html=1;" parent="1" vertex="1">
          <mxGeometry x="1010" y="430" width="190" height="70" as="geometry" />
        </mxCell>
        <mxCell id="gjyP67Qj3iF5TzowIGo3-2" value="&lt;div style=&quot;background-color:#151515;color:#a9b7c6&quot;&gt;&lt;pre style=&quot;font-family:&#39;Consolas&#39;,monospace;font-size:11.3pt;&quot;&gt;Setup&lt;/pre&gt;&lt;/div&gt;" style="text;whiteSpace=wrap;html=1;" parent="1" vertex="1">
          <mxGeometry x="700" y="450" width="70" height="70" as="geometry" />
        </mxCell>
        <mxCell id="gjyP67Qj3iF5TzowIGo3-3" value="&lt;div style=&quot;background-color:#151515;color:#a9b7c6&quot;&gt;&lt;pre style=&quot;font-family:&#39;Consolas&#39;,monospace;font-size:11.3pt;&quot;&gt;ForwardLights&lt;/pre&gt;&lt;/div&gt;" style="text;whiteSpace=wrap;html=1;" parent="1" vertex="1">
          <mxGeometry x="590" y="450" width="140" height="70" as="geometry" />
        </mxCell>
        <mxCell id="gjyP67Qj3iF5TzowIGo3-4" value="&lt;div style=&quot;background-color:#151515;color:#a9b7c6&quot;&gt;&lt;pre style=&quot;font-family:&#39;Consolas&#39;,monospace;font-size:11.3pt;&quot;&gt;ForwardLights&lt;/pre&gt;&lt;/div&gt;" style="text;whiteSpace=wrap;html=1;" parent="1" vertex="1">
          <mxGeometry x="890" y="450" width="140" height="70" as="geometry" />
        </mxCell>
        <mxCell id="gjyP67Qj3iF5TzowIGo3-5" value="&lt;div style=&quot;background-color:#151515;color:#a9b7c6&quot;&gt;&lt;pre style=&quot;font-family:&#39;Consolas&#39;,monospace;font-size:11.3pt;&quot;&gt;SetupLights&lt;/pre&gt;&lt;/div&gt;" style="text;whiteSpace=wrap;html=1;" parent="1" vertex="1">
          <mxGeometry x="400" y="450" width="120" height="70" as="geometry" />
        </mxCell>
        <mxCell id="gjyP67Qj3iF5TzowIGo3-6" value="&lt;div style=&quot;background-color:#151515;color:#a9b7c6&quot;&gt;&lt;pre style=&quot;font-family:&#39;Consolas&#39;,monospace;font-size:11.3pt;&quot;&gt;&lt;span style=&quot;color:#4ec9b0;&quot;&gt;ForwardRenderer&lt;/span&gt;&lt;/pre&gt;&lt;/div&gt;" style="text;whiteSpace=wrap;html=1;" parent="1" vertex="1">
          <mxGeometry x="270" y="450" width="160" height="70" as="geometry" />
        </mxCell>
        <mxCell id="gjyP67Qj3iF5TzowIGo3-9" value="&lt;div style=&quot;background-color:#151515;color:#a9b7c6&quot;&gt;&lt;pre style=&quot;font-family:&#39;Consolas&#39;,monospace;font-size:11.3pt;&quot;&gt;Execute&lt;/pre&gt;&lt;/div&gt;" style="text;whiteSpace=wrap;html=1;" parent="1" vertex="1">
          <mxGeometry x="1340" y="510" width="90" height="70" as="geometry" />
        </mxCell>
        <mxCell id="gjyP67Qj3iF5TzowIGo3-10" value="&lt;div style=&quot;background-color:#151515;color:#a9b7c6&quot;&gt;&lt;pre style=&quot;font-family:&#39;Consolas&#39;,monospace;font-size:11.3pt;&quot;&gt;LocalLightsShadowMapPass&lt;/pre&gt;&lt;/div&gt;" style="text;whiteSpace=wrap;html=1;" parent="1" vertex="1">
          <mxGeometry x="1138" y="510" width="230" height="70" as="geometry" />
        </mxCell>
        <mxCell id="gjyP67Qj3iF5TzowIGo3-11" value="&lt;div style=&quot;background-color:#151515;color:#a9b7c6&quot;&gt;&lt;pre style=&quot;font-family:&#39;Consolas&#39;,monospace;font-size:11.3pt;&quot;&gt;ExecuteRenderPass&lt;/pre&gt;&lt;/div&gt;" style="text;whiteSpace=wrap;html=1;" parent="1" vertex="1">
          <mxGeometry x="890" y="510" width="170" height="70" as="geometry" />
        </mxCell>
        <mxCell id="gjyP67Qj3iF5TzowIGo3-12" value="&lt;div style=&quot;background-color:#151515;color:#a9b7c6&quot;&gt;&lt;pre style=&quot;font-family:&#39;Consolas&#39;,monospace;font-size:11.3pt;&quot;&gt;ScriptableRenderer&lt;/pre&gt;&lt;/div&gt;" style="text;whiteSpace=wrap;html=1;" parent="1" vertex="1">
          <mxGeometry x="740" y="510" width="180" height="70" as="geometry" />
        </mxCell>
        <mxCell id="gjyP67Qj3iF5TzowIGo3-18" value="&lt;div style=&quot;background-color:#151515;color:#a9b7c6&quot;&gt;&lt;pre style=&quot;font-family:&#39;Consolas&#39;,monospace;font-size:11.3pt;&quot;&gt;SetupAdditionalLightConstants&lt;/pre&gt;&lt;/div&gt;" style="text;whiteSpace=wrap;html=1;" parent="1" vertex="1">
          <mxGeometry x="1730" y="620" width="270" height="70" as="geometry" />
        </mxCell>
        <mxCell id="gjyP67Qj3iF5TzowIGo3-20" value="&lt;div style=&quot;background-color:#151515;color:#a9b7c6&quot;&gt;&lt;pre style=&quot;font-family:&#39;Consolas&#39;,monospace;font-size:11.3pt;&quot;&gt;SetupShaderLightConstants&lt;/pre&gt;&lt;/div&gt;" style="text;whiteSpace=wrap;html=1;" parent="1" vertex="1">
          <mxGeometry x="1500" y="620" width="240" height="70" as="geometry" />
        </mxCell>
        <mxCell id="gjyP67Qj3iF5TzowIGo3-23" value="&lt;div style=&quot;background-color:#151515;color:#a9b7c6&quot;&gt;&lt;pre style=&quot;font-family:&#39;Consolas&#39;,monospace;font-size:11.3pt;&quot;&gt;ExecuteSetConstants&lt;/pre&gt;&lt;/div&gt;" style="text;whiteSpace=wrap;html=1;" parent="1" vertex="1">
          <mxGeometry x="1320" y="640" width="190" height="70" as="geometry" />
        </mxCell>
        <mxCell id="gjyP67Qj3iF5TzowIGo3-25" value="&lt;div style=&quot;background-color:#151515;color:#a9b7c6&quot;&gt;&lt;pre style=&quot;font-family:&#39;Consolas&#39;,monospace;font-size:11.3pt;&quot;&gt;SetupConstants&lt;/pre&gt;&lt;/div&gt;" style="text;whiteSpace=wrap;html=1;" parent="1" vertex="1">
          <mxGeometry x="1178" y="640" width="150" height="70" as="geometry" />
        </mxCell>
        <mxCell id="gjyP67Qj3iF5TzowIGo3-26" value="&lt;div style=&quot;background-color:#151515;color:#a9b7c6&quot;&gt;&lt;pre style=&quot;font-family:&#39;Consolas&#39;,monospace;font-size:11.3pt;&quot;&gt;ForwardLights&lt;/pre&gt;&lt;/div&gt;" style="text;whiteSpace=wrap;html=1;" parent="1" vertex="1">
          <mxGeometry x="1068" y="640" width="140" height="70" as="geometry" />
        </mxCell>
        <mxCell id="gjyP67Qj3iF5TzowIGo3-27" value="&lt;div style=&quot;background-color:#151515;color:#a9b7c6&quot;&gt;&lt;pre style=&quot;font-family:&#39;Consolas&#39;,monospace;font-size:11.3pt;&quot;&gt;SetupLightConstants&lt;/pre&gt;&lt;/div&gt;" style="text;whiteSpace=wrap;html=1;" parent="1" vertex="1">
          <mxGeometry x="846" y="640" width="190" height="70" as="geometry" />
        </mxCell>
        <mxCell id="gjyP67Qj3iF5TzowIGo3-28" value="&lt;div style=&quot;background-color:#151515;color:#a9b7c6&quot;&gt;&lt;pre style=&quot;font-family:&#39;Consolas&#39;,monospace;font-size:11.3pt;&quot;&gt;&lt;span style=&quot;color:#4ec9b0;&quot;&gt;ForwardRenderer&lt;/span&gt;&lt;/pre&gt;&lt;/div&gt;" style="text;whiteSpace=wrap;html=1;" parent="1" vertex="1">
          <mxGeometry x="720" y="640" width="160" height="70" as="geometry" />
        </mxCell>
        <mxCell id="gjyP67Qj3iF5TzowIGo3-29" value="&lt;div style=&quot;background-color:#151515;color:#a9b7c6&quot;&gt;&lt;pre style=&quot;font-family:&#39;Consolas&#39;,monospace;font-size:11.3pt;&quot;&gt;SetupCameraProperties&lt;/pre&gt;&lt;/div&gt;" style="text;whiteSpace=wrap;html=1;" parent="1" vertex="1">
          <mxGeometry x="370" y="640" width="210" height="70" as="geometry" />
        </mxCell>
        <mxCell id="gjyP67Qj3iF5TzowIGo3-30" value="&lt;div style=&quot;background-color:#151515;color:#a9b7c6&quot;&gt;&lt;pre style=&quot;font-family:&#39;Consolas&#39;,monospace;font-size:11.3pt;&quot;&gt;&lt;span style=&quot;color:#4ec9b0;&quot;&gt;EngineUtils&lt;/span&gt;&lt;/pre&gt;&lt;/div&gt;" style="text;whiteSpace=wrap;html=1;" parent="1" vertex="1">
          <mxGeometry x="270" y="640" width="120" height="70" as="geometry" />
        </mxCell>
        <mxCell id="gjyP67Qj3iF5TzowIGo3-31" value="&lt;div style=&quot;background-color:#151515;color:#a9b7c6&quot;&gt;&lt;pre style=&quot;font-family:&#39;Consolas&#39;,monospace;font-size:11.3pt;&quot;&gt;BeforeRendering&lt;/pre&gt;&lt;/div&gt;" style="text;whiteSpace=wrap;html=1;" parent="1" vertex="1">
          <mxGeometry x="520" y="510" width="160" height="70" as="geometry" />
        </mxCell>
        <mxCell id="gjyP67Qj3iF5TzowIGo3-32" value="&lt;div style=&quot;background-color:#151515;color:#a9b7c6&quot;&gt;&lt;pre style=&quot;font-family:&#39;Consolas&#39;,monospace;font-size:11.3pt;&quot;&gt;Execute&lt;/pre&gt;&lt;/div&gt;" style="text;whiteSpace=wrap;html=1;" parent="1" vertex="1">
          <mxGeometry x="170" y="520" width="90" height="70" as="geometry" />
        </mxCell>
        <mxCell id="gjyP67Qj3iF5TzowIGo3-33" value="&lt;div style=&quot;background-color:#151515;color:#a9b7c6&quot;&gt;&lt;pre style=&quot;font-family:&#39;Consolas&#39;,monospace;font-size:11.3pt;&quot;&gt;&lt;span style=&quot;color:#4ec9b0;&quot;&gt;ScriptableRenderer&lt;/span&gt;&lt;/pre&gt;&lt;/div&gt;" style="text;whiteSpace=wrap;html=1;" parent="1" vertex="1">
          <mxGeometry x="20" y="520" width="180" height="70" as="geometry" />
        </mxCell>
        <mxCell id="gjyP67Qj3iF5TzowIGo3-35" value="&lt;div style=&quot;background-color:#151515;color:#a9b7c6&quot;&gt;&lt;pre style=&quot;font-family:&#39;Consolas&#39;,monospace;font-size:11.3pt;&quot;&gt;eyeIndex&lt;/pre&gt;&lt;/div&gt;" style="text;whiteSpace=wrap;html=1;" parent="1" vertex="1">
          <mxGeometry x="550" y="640" width="100" height="70" as="geometry" />
        </mxCell>
        <mxCell id="gjyP67Qj3iF5TzowIGo3-37" value="" style="endArrow=classic;html=1;rounded=0;" parent="1" edge="1">
          <mxGeometry width="50" height="50" relative="1" as="geometry">
            <mxPoint x="260" y="180" as="sourcePoint" />
            <mxPoint x="260" y="870" as="targetPoint" />
          </mxGeometry>
        </mxCell>
        <mxCell id="gjyP67Qj3iF5TzowIGo3-38" value="Time" style="text;html=1;align=center;verticalAlign=middle;whiteSpace=wrap;rounded=0;" parent="1" vertex="1">
          <mxGeometry x="230" y="150" width="60" height="30" as="geometry" />
        </mxCell>
        <mxCell id="jID6rDYTjUCqh4Yij8ll-1" value="&lt;div style=&quot;background-color:#151515;color:#a9b7c6&quot;&gt;&lt;pre style=&quot;font-family:&#39;Consolas&#39;,monospace;font-size:11.3pt;&quot;&gt;ExecuteBlock&lt;/pre&gt;&lt;/div&gt;" style="text;whiteSpace=wrap;html=1;" parent="1" vertex="1">
          <mxGeometry x="420" y="510" width="130" height="70" as="geometry" />
        </mxCell>
        <mxCell id="jID6rDYTjUCqh4Yij8ll-2" value="&lt;div style=&quot;background-color:#151515;color:#a9b7c6&quot;&gt;&lt;pre style=&quot;font-family:&#39;Consolas&#39;,monospace;font-size:11.3pt;&quot;&gt;ScriptableRenderer&lt;/pre&gt;&lt;/div&gt;" style="text;whiteSpace=wrap;html=1;" parent="1" vertex="1">
          <mxGeometry x="270" y="510" width="180" height="70" as="geometry" />
        </mxCell>
        <mxCell id="jID6rDYTjUCqh4Yij8ll-4" value="&lt;div style=&quot;background-color:#151515;color:#a9b7c6&quot;&gt;&lt;pre style=&quot;font-family:&#39;Consolas&#39;,monospace;font-size:11.3pt;&quot;&gt;MainRendering&lt;/pre&gt;&lt;/div&gt;" style="text;whiteSpace=wrap;html=1;" parent="1" vertex="1">
          <mxGeometry x="522" y="700" width="140" height="70" as="geometry" />
        </mxCell>
        <mxCell id="jID6rDYTjUCqh4Yij8ll-7" value="&lt;div style=&quot;background-color:#151515;color:#a9b7c6&quot;&gt;&lt;pre style=&quot;font-family:&#39;Consolas&#39;,monospace;font-size:11.3pt;&quot;&gt;ExecuteRenderPass&lt;/pre&gt;&lt;/div&gt;" style="text;whiteSpace=wrap;html=1;" parent="1" vertex="1">
          <mxGeometry x="870" y="700" width="170" height="70" as="geometry" />
        </mxCell>
        <mxCell id="jID6rDYTjUCqh4Yij8ll-8" value="&lt;div style=&quot;background-color:#151515;color:#a9b7c6&quot;&gt;&lt;pre style=&quot;font-family:&#39;Consolas&#39;,monospace;font-size:11.3pt;&quot;&gt;ScriptableRenderer&lt;/pre&gt;&lt;/div&gt;" style="text;whiteSpace=wrap;html=1;" parent="1" vertex="1">
          <mxGeometry x="720" y="700" width="180" height="70" as="geometry" />
        </mxCell>
        <mxCell id="jID6rDYTjUCqh4Yij8ll-9" value="&lt;div style=&quot;background-color:#151515;color:#a9b7c6&quot;&gt;&lt;pre style=&quot;font-family:&#39;Consolas&#39;,monospace;font-size:11.3pt;&quot;&gt;DeferredLightingPass&lt;/pre&gt;&lt;/div&gt;" style="text;whiteSpace=wrap;html=1;" parent="1" vertex="1">
          <mxGeometry x="1118" y="700" width="200" height="70" as="geometry" />
        </mxCell>
        <mxCell id="jID6rDYTjUCqh4Yij8ll-10" value="&lt;div style=&quot;background-color:#151515;color:#a9b7c6&quot;&gt;&lt;pre style=&quot;font-family:&#39;Consolas&#39;,monospace;font-size:11.3pt;&quot;&gt;Execute&lt;/pre&gt;&lt;/div&gt;" style="text;whiteSpace=wrap;html=1;" parent="1" vertex="1">
          <mxGeometry x="1287" y="700" width="90" height="70" as="geometry" />
        </mxCell>
        <mxCell id="jID6rDYTjUCqh4Yij8ll-11" value="&lt;div style=&quot;background-color:#151515;color:#a9b7c6&quot;&gt;&lt;pre style=&quot;font-family:&#39;Consolas&#39;,monospace;font-size:11.3pt;&quot;&gt;ExecuteBlock&lt;/pre&gt;&lt;/div&gt;" style="text;whiteSpace=wrap;html=1;" parent="1" vertex="1">
          <mxGeometry x="420" y="700" width="130" height="70" as="geometry" />
        </mxCell>
        <mxCell id="jID6rDYTjUCqh4Yij8ll-12" value="&lt;div style=&quot;background-color:#151515;color:#a9b7c6&quot;&gt;&lt;pre style=&quot;font-family:&#39;Consolas&#39;,monospace;font-size:11.3pt;&quot;&gt;ScriptableRenderer&lt;/pre&gt;&lt;/div&gt;" style="text;whiteSpace=wrap;html=1;" parent="1" vertex="1">
          <mxGeometry x="270" y="700" width="180" height="70" as="geometry" />
        </mxCell>
        <mxCell id="jID6rDYTjUCqh4Yij8ll-13" value="&lt;div style=&quot;background-color:#151515;color:#a9b7c6&quot;&gt;&lt;pre style=&quot;font-family:&#39;Consolas&#39;,monospace;font-size:11.3pt;&quot;&gt;SetShaderKeywords&lt;/pre&gt;&lt;/div&gt;" style="text;whiteSpace=wrap;html=1;" parent="1" vertex="1">
          <mxGeometry x="1500" y="660" width="170" height="70" as="geometry" />
        </mxCell>
        <mxCell id="69ToR_8HbZWJ9TDHZz5m-1" value="&lt;div style=&quot;background-color:#151515;color:#a9b7c6&quot;&gt;&lt;pre style=&quot;font-family:&#39;Consolas&#39;,monospace;font-size:11.3pt;&quot;&gt;UpdatePaperRPVisibleLight&lt;/pre&gt;&lt;/div&gt;" style="text;whiteSpace=wrap;html=1;" parent="1" vertex="1">
          <mxGeometry x="1010" y="460" width="240" height="70" as="geometry" />
        </mxCell>
      </root>
    </mxGraphModel>
  </diagram>
  <diagram id="bf14ivOEYRixd8uhq06C" name="PRP">
    <mxGraphModel dx="1434" dy="756" grid="1" gridSize="10" guides="1" tooltips="1" connect="1" arrows="1" fold="1" page="1" pageScale="1" pageWidth="3300" pageHeight="4681" math="0" shadow="0">
      <root>
        <mxCell id="0" />
        <mxCell id="1" parent="0" />
        <mxCell id="hru0ytr7piouiyXI4P5z-1" value="&lt;div style=&quot;background-color:#151515;color:#a9b7c6&quot;&gt;&lt;pre style=&quot;font-family:&#39;Consolas&#39;,monospace;font-size:11.3pt;&quot;&gt;InitializeCameraData&lt;/pre&gt;&lt;/div&gt;" style="text;whiteSpace=wrap;html=1;" parent="1" vertex="1">
          <mxGeometry x="680" y="350" width="200" height="70" as="geometry" />
        </mxCell>
        <mxCell id="hru0ytr7piouiyXI4P5z-2" value="&lt;div style=&quot;background-color:#151515;color:#a9b7c6&quot;&gt;&lt;pre style=&quot;font-family:&#39;Consolas&#39;,monospace;font-size:11.3pt;&quot;&gt;&lt;span style=&quot;color:#4ec9b0;&quot;&gt;PapegameRenderPipeline&lt;/span&gt;&lt;/pre&gt;&lt;/div&gt;" style="text;whiteSpace=wrap;html=1;" parent="1" vertex="1">
          <mxGeometry x="100" y="320" width="220" height="70" as="geometry" />
        </mxCell>
        <mxCell id="hru0ytr7piouiyXI4P5z-3" value="&lt;div style=&quot;background-color:#151515;color:#a9b7c6&quot;&gt;&lt;pre style=&quot;font-family:&#39;Consolas&#39;,monospace;font-size:11.3pt;&quot;&gt;RenderSingleCamera&lt;/pre&gt;&lt;/div&gt;" style="text;whiteSpace=wrap;html=1;" parent="1" vertex="1">
          <mxGeometry x="510" y="320" width="180" height="70" as="geometry" />
        </mxCell>
        <mxCell id="hru0ytr7piouiyXI4P5z-4" value="&lt;div style=&quot;background-color:#151515;color:#a9b7c6&quot;&gt;&lt;pre style=&quot;font-family:&#39;Consolas&#39;,monospace;font-size:11.3pt;&quot;&gt;Render&lt;/pre&gt;&lt;/div&gt;" style="text;whiteSpace=wrap;html=1;" parent="1" vertex="1">
          <mxGeometry x="440" y="320" width="80" height="70" as="geometry" />
        </mxCell>
        <mxCell id="hru0ytr7piouiyXI4P5z-5" value="&lt;div style=&quot;background-color:#151515;color:#a9b7c6&quot;&gt;&lt;pre style=&quot;font-family:&#39;Consolas&#39;,monospace;font-size:11.3pt;&quot;&gt;Update&lt;/pre&gt;&lt;/div&gt;" style="text;whiteSpace=wrap;html=1;" parent="1" vertex="1">
          <mxGeometry x="770" y="270" width="80" height="70" as="geometry" />
        </mxCell>
        <mxCell id="hru0ytr7piouiyXI4P5z-6" value="&lt;div style=&quot;background-color:#151515;color:#a9b7c6&quot;&gt;&lt;pre style=&quot;font-family:&#39;Consolas&#39;,monospace;font-size:11.3pt;&quot;&gt;Setup&lt;/pre&gt;&lt;/div&gt;" style="text;whiteSpace=wrap;html=1;" parent="1" vertex="1">
          <mxGeometry x="970" y="370" width="70" height="70" as="geometry" />
        </mxCell>
        <mxCell id="hru0ytr7piouiyXI4P5z-7" value="&lt;div style=&quot;background-color:#151515;color:#a9b7c6&quot;&gt;&lt;pre style=&quot;font-family:&#39;Consolas&#39;,monospace;font-size:11.3pt;&quot;&gt;&lt;span style=&quot;color:#4ec9b0;&quot;&gt;PapeCamera&lt;/span&gt;&lt;/pre&gt;&lt;/div&gt;" style="text;whiteSpace=wrap;html=1;" parent="1" vertex="1">
          <mxGeometry x="680" y="270" width="120" height="70" as="geometry" />
        </mxCell>
        <mxCell id="hru0ytr7piouiyXI4P5z-8" value="&lt;div style=&quot;background-color:#151515;color:#a9b7c6&quot;&gt;&lt;pre style=&quot;font-family:&#39;Consolas&#39;,monospace;font-size:11.3pt;&quot;&gt;Fill CameraData&lt;/pre&gt;&lt;/div&gt;" style="text;whiteSpace=wrap;html=1;" parent="1" vertex="1">
          <mxGeometry x="880" y="330" width="120" height="70" as="geometry" />
        </mxCell>
        <mxCell id="hru0ytr7piouiyXI4P5z-9" value="&lt;div style=&quot;background-color:#151515;color:#a9b7c6&quot;&gt;&lt;pre style=&quot;font-family:&#39;Consolas&#39;,monospace;font-size:11.3pt;&quot;&gt;&lt;span style=&quot;color:#4ec9b0;&quot;&gt;PapeCamera&lt;/span&gt;&lt;/pre&gt;&lt;/div&gt;" style="text;whiteSpace=wrap;html=1;" parent="1" vertex="1">
          <mxGeometry x="880" y="370" width="120" height="70" as="geometry" />
        </mxCell>
        <mxCell id="hru0ytr7piouiyXI4P5z-10" value="&lt;div style=&quot;background-color:#151515;color:#a9b7c6&quot;&gt;&lt;pre style=&quot;font-family:&#39;Consolas&#39;,monospace;font-size:11.3pt;&quot;&gt;Execute&lt;/pre&gt;&lt;/div&gt;" style="text;whiteSpace=wrap;html=1;" parent="1" vertex="1">
          <mxGeometry x="810" y="440" width="90" height="70" as="geometry" />
        </mxCell>
        <mxCell id="hru0ytr7piouiyXI4P5z-11" value="&lt;div style=&quot;background-color:#151515;color:#a9b7c6&quot;&gt;&lt;pre style=&quot;font-family:&#39;Consolas&#39;,monospace;font-size:11.3pt;&quot;&gt;&lt;span style=&quot;color:#4ec9b0;&quot;&gt;ForwardRenderer&lt;/span&gt;&lt;/pre&gt;&lt;/div&gt;" style="text;whiteSpace=wrap;html=1;" parent="1" vertex="1">
          <mxGeometry x="680" y="440" width="160" height="70" as="geometry" />
        </mxCell>
        <mxCell id="jzALt22aRWCnlScPM6uc-1" value="" style="rounded=0;whiteSpace=wrap;html=1;fillColor=none;strokeColor=light-dark(#ff0000, #ededed);" vertex="1" parent="1">
          <mxGeometry x="670" y="440" width="210" height="60" as="geometry" />
        </mxCell>
        <mxCell id="j2fKoo0Yjss6wkkCM_m6-1" value="Page 1" style="text;html=1;align=center;verticalAlign=middle;whiteSpace=wrap;rounded=0;fontColor=#FF0000;" vertex="1" parent="1">
          <mxGeometry x="660" y="420" width="60" height="30" as="geometry" />
        </mxCell>
      </root>
    </mxGraphModel>
  </diagram>
  <diagram id="7jZxH_6-7szyLKW8zE-E" name="WP">
    <mxGraphModel dx="1434" dy="756" grid="1" gridSize="10" guides="1" tooltips="1" connect="1" arrows="1" fold="1" page="1" pageScale="1" pageWidth="3300" pageHeight="4681" math="0" shadow="0">
      <root>
        <mxCell id="0" />
        <mxCell id="1" parent="0" />
        <mxCell id="Xy66Z-4rNSVgDLzVEtZ0-1" value="&lt;div style=&quot;background-color:#151515;color:#a9b7c6&quot;&gt;&lt;pre style=&quot;font-family:&#39;Consolas&#39;,monospace;font-size:11.3pt;&quot;&gt;WorldPartitionStreamingSourceComponent&lt;/pre&gt;&lt;/div&gt;" style="text;whiteSpace=wrap;html=1;" vertex="1" parent="1">
          <mxGeometry x="20" y="326" width="350" height="70" as="geometry" />
        </mxCell>
        <mxCell id="Xy66Z-4rNSVgDLzVEtZ0-2" value="&lt;div style=&quot;background-color:#151515;color:#a9b7c6&quot;&gt;&lt;pre style=&quot;font-family:&#39;Consolas&#39;,monospace;font-size:11.3pt;&quot;&gt;Tick&lt;/pre&gt;&lt;/div&gt;" style="text;whiteSpace=wrap;html=1;" vertex="1" parent="1">
          <mxGeometry x="340" y="326" width="70" height="70" as="geometry" />
        </mxCell>
        <mxCell id="Xy66Z-4rNSVgDLzVEtZ0-3" value="&lt;div style=&quot;background-color:#151515;color:#a9b7c6&quot;&gt;&lt;pre style=&quot;font-family:&#39;Consolas&#39;,monospace;font-size:11.3pt;&quot;&gt;PapeWorldPartitionManager&lt;/pre&gt;&lt;/div&gt;" style="text;whiteSpace=wrap;html=1;" vertex="1" parent="1">
          <mxGeometry x="410" y="260" width="240" height="70" as="geometry" />
        </mxCell>
        <mxCell id="Xy66Z-4rNSVgDLzVEtZ0-4" value="&lt;div style=&quot;background-color:#151515;color:#a9b7c6&quot;&gt;&lt;pre style=&quot;font-family:&#39;Consolas&#39;,monospace;font-size:11.3pt;&quot;&gt;UpdateStreamingState&lt;/pre&gt;&lt;/div&gt;" style="text;whiteSpace=wrap;html=1;" vertex="1" parent="1">
          <mxGeometry x="620" y="260" width="200" height="70" as="geometry" />
        </mxCell>
        <mxCell id="-BNBn9OGD7n9PEmFxY-o-1" value="&lt;div style=&quot;background-color:#151515;color:#a9b7c6&quot;&gt;&lt;pre style=&quot;font-family:&#39;Consolas&#39;,monospace;font-size:11.3pt;&quot;&gt;PapeWorldPartitionManager&lt;/pre&gt;&lt;/div&gt;" style="text;whiteSpace=wrap;html=1;" vertex="1" parent="1">
          <mxGeometry x="410" y="380" width="240" height="70" as="geometry" />
        </mxCell>
        <mxCell id="-BNBn9OGD7n9PEmFxY-o-2" value="&lt;div style=&quot;background-color:#151515;color:#a9b7c6&quot;&gt;&lt;pre style=&quot;font-family:&#39;Consolas&#39;,monospace;font-size:11.3pt;&quot;&gt;UpdateLevelStreaming&lt;/pre&gt;&lt;/div&gt;" style="text;whiteSpace=wrap;html=1;" vertex="1" parent="1">
          <mxGeometry x="620" y="380" width="200" height="70" as="geometry" />
        </mxCell>
        <mxCell id="-BNBn9OGD7n9PEmFxY-o-3" value="&lt;div style=&quot;background-color:#151515;color:#a9b7c6&quot;&gt;&lt;pre style=&quot;font-family:&#39;Consolas&#39;,monospace;font-size:11.3pt;&quot;&gt;WorldPartition&lt;/pre&gt;&lt;/div&gt;" style="text;whiteSpace=wrap;html=1;" vertex="1" parent="1">
          <mxGeometry x="850" y="260" width="150" height="70" as="geometry" />
        </mxCell>
        <mxCell id="-BNBn9OGD7n9PEmFxY-o-4" value="&lt;div style=&quot;background-color:#151515;color:#a9b7c6&quot;&gt;&lt;pre style=&quot;font-family:&#39;Consolas&#39;,monospace;font-size:11.3pt;&quot;&gt;UpdateStreamingState&lt;/pre&gt;&lt;/div&gt;" style="text;whiteSpace=wrap;html=1;" vertex="1" parent="1">
          <mxGeometry x="970" y="260" width="200" height="70" as="geometry" />
        </mxCell>
        <mxCell id="-BNBn9OGD7n9PEmFxY-o-5" value="&lt;div style=&quot;background-color:#151515;color:#a9b7c6&quot;&gt;&lt;pre style=&quot;font-family:&#39;Consolas&#39;,monospace;font-size:11.3pt;&quot;&gt;WorldPartitionRuntimeCell&lt;/pre&gt;&lt;/div&gt;" style="text;whiteSpace=wrap;html=1;" vertex="1" parent="1">
          <mxGeometry x="850" y="330" width="240" height="70" as="geometry" />
        </mxCell>
        <mxCell id="-BNBn9OGD7n9PEmFxY-o-6" value="&lt;div style=&quot;background-color:#151515;color:#a9b7c6&quot;&gt;&lt;pre style=&quot;font-family:&#39;Consolas&#39;,monospace;font-size:11.3pt;&quot;&gt;UpdateStreamingState&lt;/pre&gt;&lt;/div&gt;" style="text;whiteSpace=wrap;html=1;" vertex="1" parent="1">
          <mxGeometry x="1060" y="330" width="200" height="70" as="geometry" />
        </mxCell>
        <mxCell id="-BNBn9OGD7n9PEmFxY-o-7" value="实际处理状态" style="text;html=1;align=center;verticalAlign=middle;whiteSpace=wrap;rounded=0;" vertex="1" parent="1">
          <mxGeometry x="1224" y="346" width="90" height="30" as="geometry" />
        </mxCell>
        <mxCell id="-BNBn9OGD7n9PEmFxY-o-8" value="计算状态" style="text;html=1;align=center;verticalAlign=middle;whiteSpace=wrap;rounded=0;" vertex="1" parent="1">
          <mxGeometry x="1131" y="277" width="80" height="30" as="geometry" />
        </mxCell>
        <mxCell id="-BNBn9OGD7n9PEmFxY-o-9" value="&lt;div style=&quot;background-color:#151515;color:#a9b7c6&quot;&gt;&lt;pre style=&quot;font-family:&#39;Consolas&#39;,monospace;font-size:11.3pt;&quot;&gt;RequestLevel&lt;/pre&gt;&lt;/div&gt;" style="text;whiteSpace=wrap;html=1;" vertex="1" parent="1">
          <mxGeometry x="1160" y="370" width="130" height="70" as="geometry" />
        </mxCell>
        <mxCell id="-BNBn9OGD7n9PEmFxY-o-10" value="&lt;div style=&quot;background-color:#151515;color:#a9b7c6&quot;&gt;&lt;pre style=&quot;font-family:&#39;Consolas&#39;,monospace;font-size:11.3pt;&quot;&gt;UnLoadLevel&lt;/pre&gt;&lt;/div&gt;" style="text;whiteSpace=wrap;html=1;" vertex="1" parent="1">
          <mxGeometry x="1270" y="370" width="120" height="70" as="geometry" />
        </mxCell>
        <mxCell id="-BNBn9OGD7n9PEmFxY-o-11" value="&lt;span style=&quot;color: rgb(0, 0, 0); font-family: Helvetica; font-size: 12px; font-style: normal; font-variant-ligatures: normal; font-variant-caps: normal; font-weight: 400; letter-spacing: normal; orphans: 2; text-align: center; text-indent: 0px; text-transform: none; widows: 2; word-spacing: 0px; -webkit-text-stroke-width: 0px; white-space: normal; background-color: rgb(251, 251, 251); text-decoration-thickness: initial; text-decoration-style: initial; text-decoration-color: initial; display: inline !important; float: none;&quot;&gt;添加加卸载指令&lt;/span&gt;" style="text;whiteSpace=wrap;html=1;" vertex="1" parent="1">
          <mxGeometry x="1225" y="410" width="120" height="40" as="geometry" />
        </mxCell>
        <mxCell id="-BNBn9OGD7n9PEmFxY-o-12" value="&lt;div style=&quot;background-color:#151515;color:#a9b7c6&quot;&gt;&lt;pre style=&quot;font-family:&#39;Consolas&#39;,monospace;font-size:11.3pt;&quot;&gt;RenderAssetStreamingManager&lt;/pre&gt;&lt;/div&gt;" style="text;whiteSpace=wrap;html=1;" vertex="1" parent="1">
          <mxGeometry x="850" y="430" width="260" height="70" as="geometry" />
        </mxCell>
        <mxCell id="-BNBn9OGD7n9PEmFxY-o-13" value="&lt;div style=&quot;background-color:#151515;color:#a9b7c6&quot;&gt;&lt;pre style=&quot;font-family:&#39;Consolas&#39;,monospace;font-size:11.3pt;&quot;&gt;LoadResource&lt;/pre&gt;&lt;/div&gt;" style="text;whiteSpace=wrap;html=1;" vertex="1" parent="1">
          <mxGeometry x="1081" y="450" width="130" height="70" as="geometry" />
        </mxCell>
        <mxCell id="-BNBn9OGD7n9PEmFxY-o-14" value="&lt;div style=&quot;background-color:#151515;color:#a9b7c6&quot;&gt;&lt;pre style=&quot;font-family:&#39;Consolas&#39;,monospace;font-size:11.3pt;&quot;&gt;UnLoadResource&lt;/pre&gt;&lt;/div&gt;" style="text;whiteSpace=wrap;html=1;" vertex="1" parent="1">
          <mxGeometry x="1081" y="420" width="150" height="70" as="geometry" />
        </mxCell>
        <mxCell id="-BNBn9OGD7n9PEmFxY-o-15" value="&lt;span style=&quot;color: rgb(0, 0, 0); font-family: Helvetica; font-size: 12px; font-style: normal; font-variant-ligatures: normal; font-variant-caps: normal; font-weight: 400; letter-spacing: normal; orphans: 2; text-align: center; text-indent: 0px; text-transform: none; widows: 2; word-spacing: 0px; -webkit-text-stroke-width: 0px; white-space: normal; background-color: rgb(251, 251, 251); text-decoration-thickness: initial; text-decoration-style: initial; text-decoration-color: initial; float: none; display: inline !important;&quot;&gt;实际加卸载&lt;/span&gt;" style="text;whiteSpace=wrap;html=1;" vertex="1" parent="1">
          <mxGeometry x="1209" y="450" width="120" height="40" as="geometry" />
        </mxCell>
      </root>
    </mxGraphModel>
  </diagram>
  <diagram id="IF8exIzP8RXyZl0_qoAP" name="NN4">
    <mxGraphModel dx="1434" dy="756" grid="1" gridSize="10" guides="1" tooltips="1" connect="1" arrows="1" fold="1" page="1" pageScale="1" pageWidth="3300" pageHeight="4681" math="0" shadow="0">
      <root>
        <mxCell id="0" />
        <mxCell id="1" parent="0" />
        <mxCell id="l6SydOB71kSHJgn0mLkd-1" value="&lt;div style=&quot;background-color:#151515;color:#a9b7c6&quot;&gt;&lt;pre style=&quot;font-family:&#39;Consolas&#39;,monospace;font-size:11.3pt;&quot;&gt;UniversalRenderPipeline&lt;/pre&gt;&lt;/div&gt;" style="text;whiteSpace=wrap;html=1;" vertex="1" parent="1">
          <mxGeometry x="30" y="330" width="220" height="70" as="geometry" />
        </mxCell>
        <mxCell id="l6SydOB71kSHJgn0mLkd-2" value="&lt;div style=&quot;background-color:#151515;color:#a9b7c6&quot;&gt;&lt;pre style=&quot;font-family:&#39;Consolas&#39;,monospace;font-size:11.3pt;&quot;&gt;&lt;span style=&quot;color:#ff8000;&quot;&gt;Render&lt;/span&gt;&lt;/pre&gt;&lt;/div&gt;" style="text;whiteSpace=wrap;html=1;" vertex="1" parent="1">
          <mxGeometry x="223" y="330" width="80" height="70" as="geometry" />
        </mxCell>
        <mxCell id="l6SydOB71kSHJgn0mLkd-3" value="&lt;div style=&quot;background-color:#151515;color:#a9b7c6&quot;&gt;&lt;pre style=&quot;font-family:&#39;Consolas&#39;,monospace;font-size:11.3pt;&quot;&gt;RenderSingleCamera&lt;/pre&gt;&lt;/div&gt;" style="text;whiteSpace=wrap;html=1;" vertex="1" parent="1">
          <mxGeometry x="300" y="330" width="180" height="70" as="geometry" />
        </mxCell>
        <mxCell id="l6SydOB71kSHJgn0mLkd-4" value="&lt;div style=&quot;background-color:#151515;color:#a9b7c6&quot;&gt;&lt;pre style=&quot;font-family:&#39;Consolas&#39;,monospace;font-size:11.3pt;&quot;&gt;ForwardRenderer&lt;/pre&gt;&lt;/div&gt;" style="text;whiteSpace=wrap;html=1;" vertex="1" parent="1">
          <mxGeometry x="490" y="300" width="160" height="70" as="geometry" />
        </mxCell>
        <mxCell id="l6SydOB71kSHJgn0mLkd-5" value="&lt;div style=&quot;background-color:#151515;color:#a9b7c6&quot;&gt;&lt;pre style=&quot;font-family:&#39;Consolas&#39;,monospace;font-size:11.3pt;&quot;&gt;Setup&lt;/pre&gt;&lt;/div&gt;" style="text;whiteSpace=wrap;html=1;" vertex="1" parent="1">
          <mxGeometry x="620" y="300" width="70" height="70" as="geometry" />
        </mxCell>
        <mxCell id="l6SydOB71kSHJgn0mLkd-6" value="&lt;div style=&quot;background-color:#151515;color:#a9b7c6&quot;&gt;&lt;pre style=&quot;font-family:&#39;Consolas&#39;,monospace;font-size:11.3pt;&quot;&gt;ForwardRenderer&lt;/pre&gt;&lt;/div&gt;" style="text;whiteSpace=wrap;html=1;" vertex="1" parent="1">
          <mxGeometry x="490" y="370" width="160" height="70" as="geometry" />
        </mxCell>
        <mxCell id="l6SydOB71kSHJgn0mLkd-7" value="&lt;div style=&quot;background-color:#151515;color:#a9b7c6&quot;&gt;&lt;pre style=&quot;font-family:&#39;Consolas&#39;,monospace;font-size:11.3pt;&quot;&gt;&lt;span style=&quot;color:#ff8000;&quot;&gt;Execute&lt;/span&gt;&lt;/pre&gt;&lt;/div&gt;" style="text;whiteSpace=wrap;html=1;" vertex="1" parent="1">
          <mxGeometry x="620" y="370" width="90" height="70" as="geometry" />
        </mxCell>
        <mxCell id="l6SydOB71kSHJgn0mLkd-8" value="&lt;div style=&quot;background-color:#151515;color:#a9b7c6&quot;&gt;&lt;pre style=&quot;font-family:&#39;Consolas&#39;,monospace;font-size:11.3pt;&quot;&gt;SetupLights&lt;/pre&gt;&lt;/div&gt;" style="text;whiteSpace=wrap;html=1;" vertex="1" parent="1">
          <mxGeometry x="710" y="370" width="120" height="70" as="geometry" />
        </mxCell>
        <mxCell id="l6SydOB71kSHJgn0mLkd-9" value="&lt;div style=&quot;background-color:#151515;color:#a9b7c6&quot;&gt;&lt;pre style=&quot;font-family:&#39;Consolas&#39;,monospace;font-size:11.3pt;&quot;&gt;ExecuteNormalRenderingPath&lt;/pre&gt;&lt;/div&gt;" style="text;whiteSpace=wrap;html=1;" vertex="1" parent="1">
          <mxGeometry x="710" y="300" width="250" height="70" as="geometry" />
        </mxCell>
        <mxCell id="l6SydOB71kSHJgn0mLkd-10" value="&lt;div style=&quot;background-color:#151515;color:#a9b7c6&quot;&gt;&lt;pre style=&quot;font-family:&#39;Consolas&#39;,monospace;font-size:11.3pt;&quot;&gt;ForwardLights&lt;/pre&gt;&lt;/div&gt;" style="text;whiteSpace=wrap;html=1;" vertex="1" parent="1">
          <mxGeometry x="970" y="300" width="140" height="70" as="geometry" />
        </mxCell>
        <mxCell id="l6SydOB71kSHJgn0mLkd-11" value="&lt;div style=&quot;background-color:#151515;color:#a9b7c6&quot;&gt;&lt;pre style=&quot;font-family:&#39;Consolas&#39;,monospace;font-size:11.3pt;&quot;&gt;ProcessLights&lt;/pre&gt;&lt;/div&gt;" style="text;whiteSpace=wrap;html=1;" vertex="1" parent="1">
          <mxGeometry x="1080" y="300" width="140" height="70" as="geometry" />
        </mxCell>
      </root>
    </mxGraphModel>
  </diagram>
</mxfile>
